<mxfile host="app.diagrams.net" modified="2024-06-17T16:11:36.231Z" agent="Mozilla/5.0 (Windows NT 10.0; Win64; x64) AppleWebKit/537.36 (KHTML, like Gecko) Chrome/125.0.0.0 Safari/537.36" etag="1_Jj6pq6zLFordnLFbSA" version="24.5.4" type="device">
  <diagram name="Page-1" id="ipw3mwLhiH3lwzZUuYzn">
    <mxGraphModel dx="1050" dy="522" grid="1" gridSize="10" guides="1" tooltips="1" connect="1" arrows="1" fold="1" page="1" pageScale="1" pageWidth="850" pageHeight="1100" math="0" shadow="0">
      <root>
        <mxCell id="0" />
        <mxCell id="1" parent="0" />
        <mxCell id="RM_54JRuScWnrG7y5Ghb-1" value="" style="whiteSpace=wrap;html=1;aspect=fixed;" vertex="1" parent="1">
          <mxGeometry x="50" y="130" width="310" height="310" as="geometry" />
        </mxCell>
        <mxCell id="RM_54JRuScWnrG7y5Ghb-2" value="LOGIN WINDOW" style="text;html=1;align=center;verticalAlign=middle;whiteSpace=wrap;rounded=0;" vertex="1" parent="1">
          <mxGeometry x="150" y="90" width="110" height="30" as="geometry" />
        </mxCell>
        <mxCell id="RM_54JRuScWnrG7y5Ghb-3" value="" style="rounded=0;whiteSpace=wrap;html=1;fillColor=#dae8fc;strokeColor=#6c8ebf;" vertex="1" parent="1">
          <mxGeometry x="120" y="200" width="170" height="40" as="geometry" />
        </mxCell>
        <mxCell id="RM_54JRuScWnrG7y5Ghb-4" value="Enter Your Name&amp;nbsp;" style="text;html=1;align=center;verticalAlign=middle;whiteSpace=wrap;rounded=0;" vertex="1" parent="1">
          <mxGeometry x="150" y="205" width="100" height="30" as="geometry" />
        </mxCell>
        <mxCell id="RM_54JRuScWnrG7y5Ghb-5" value="Join new game" style="rounded=1;whiteSpace=wrap;html=1;fillColor=#f8cecc;strokeColor=#b85450;" vertex="1" parent="1">
          <mxGeometry x="140" y="280" width="120" height="60" as="geometry" />
        </mxCell>
        <mxCell id="RM_54JRuScWnrG7y5Ghb-6" value="" style="whiteSpace=wrap;html=1;aspect=fixed;" vertex="1" parent="1">
          <mxGeometry x="420" y="120" width="400" height="400" as="geometry" />
        </mxCell>
        <mxCell id="RM_54JRuScWnrG7y5Ghb-8" value="GAME WINDOW" style="text;html=1;align=center;verticalAlign=middle;whiteSpace=wrap;rounded=0;" vertex="1" parent="1">
          <mxGeometry x="460" y="90" width="200" height="30" as="geometry" />
        </mxCell>
        <mxCell id="RM_54JRuScWnrG7y5Ghb-12" value="" style="rounded=0;whiteSpace=wrap;html=1;fillColor=#f5f5f5;gradientColor=#b3b3b3;strokeColor=#666666;" vertex="1" parent="1">
          <mxGeometry x="422.5" y="185" width="290" height="20" as="geometry" />
        </mxCell>
        <mxCell id="RM_54JRuScWnrG7y5Ghb-13" value="" style="rounded=0;whiteSpace=wrap;html=1;fillColor=#f5f5f5;gradientColor=#b3b3b3;strokeColor=#666666;" vertex="1" parent="1">
          <mxGeometry x="425" y="250" width="290" height="20" as="geometry" />
        </mxCell>
        <mxCell id="RM_54JRuScWnrG7y5Ghb-14" value="" style="rounded=0;whiteSpace=wrap;html=1;fillColor=#f5f5f5;gradientColor=#b3b3b3;strokeColor=#666666;" vertex="1" parent="1">
          <mxGeometry x="425" y="320" width="290" height="20" as="geometry" />
        </mxCell>
        <mxCell id="RM_54JRuScWnrG7y5Ghb-15" value="" style="ellipse;whiteSpace=wrap;html=1;fillColor=#ffcd28;gradientColor=#ffa500;strokeColor=#d79b00;" vertex="1" parent="1">
          <mxGeometry x="425" y="155" width="60" height="30" as="geometry" />
        </mxCell>
        <mxCell id="RM_54JRuScWnrG7y5Ghb-16" value="" style="ellipse;whiteSpace=wrap;html=1;fillColor=#ffcd28;gradientColor=#ffa500;strokeColor=#d79b00;" vertex="1" parent="1">
          <mxGeometry x="425" y="290" width="60" height="30" as="geometry" />
        </mxCell>
        <mxCell id="RM_54JRuScWnrG7y5Ghb-17" value="" style="ellipse;whiteSpace=wrap;html=1;fillColor=#ffcd28;gradientColor=#ffa500;strokeColor=#d79b00;" vertex="1" parent="1">
          <mxGeometry x="422.5" y="220" width="60" height="30" as="geometry" />
        </mxCell>
        <mxCell id="RM_54JRuScWnrG7y5Ghb-18" value="" style="rounded=0;whiteSpace=wrap;html=1;fillColor=#d0cee2;strokeColor=#56517e;" vertex="1" parent="1">
          <mxGeometry x="425" y="370" width="285" height="50" as="geometry" />
        </mxCell>
        <mxCell id="RM_54JRuScWnrG7y5Ghb-19" value="The TEXT" style="text;html=1;align=center;verticalAlign=middle;whiteSpace=wrap;rounded=0;" vertex="1" parent="1">
          <mxGeometry x="422.5" y="380" width="275" height="30" as="geometry" />
        </mxCell>
        <mxCell id="RM_54JRuScWnrG7y5Ghb-20" value="" style="rounded=0;whiteSpace=wrap;html=1;fillColor=#b1ddf0;strokeColor=#10739e;" vertex="1" parent="1">
          <mxGeometry x="425" y="440" width="285" height="60" as="geometry" />
        </mxCell>
        <mxCell id="RM_54JRuScWnrG7y5Ghb-21" value="WHERE PLAYER WILL WRITE" style="text;html=1;align=center;verticalAlign=middle;whiteSpace=wrap;rounded=0;" vertex="1" parent="1">
          <mxGeometry x="420" y="455" width="275" height="30" as="geometry" />
        </mxCell>
        <mxCell id="RM_54JRuScWnrG7y5Ghb-22" value="" style="whiteSpace=wrap;html=1;aspect=fixed;" vertex="1" parent="1">
          <mxGeometry x="330" y="600" width="300" height="300" as="geometry" />
        </mxCell>
        <mxCell id="RM_54JRuScWnrG7y5Ghb-23" value="RESULTS WINDOW" style="text;html=1;align=center;verticalAlign=middle;whiteSpace=wrap;rounded=0;" vertex="1" parent="1">
          <mxGeometry x="390" y="570" width="100" height="30" as="geometry" />
        </mxCell>
        <mxCell id="RM_54JRuScWnrG7y5Ghb-24" value="RANKS" style="swimlane;fontStyle=0;childLayout=stackLayout;horizontal=1;startSize=30;horizontalStack=0;resizeParent=1;resizeParentMax=0;resizeLast=0;collapsible=1;marginBottom=0;whiteSpace=wrap;html=1;fillColor=#fad7ac;strokeColor=#b46504;" vertex="1" parent="1">
          <mxGeometry x="500" y="740" width="90" height="120" as="geometry" />
        </mxCell>
        <mxCell id="RM_54JRuScWnrG7y5Ghb-25" value="1. Name of the first Place" style="text;strokeColor=none;fillColor=none;align=left;verticalAlign=middle;spacingLeft=4;spacingRight=4;overflow=hidden;points=[[0,0.5],[1,0.5]];portConstraint=eastwest;rotatable=0;whiteSpace=wrap;html=1;" vertex="1" parent="RM_54JRuScWnrG7y5Ghb-24">
          <mxGeometry y="30" width="90" height="30" as="geometry" />
        </mxCell>
        <mxCell id="RM_54JRuScWnrG7y5Ghb-26" value="2. Name of the second Place" style="text;strokeColor=none;fillColor=none;align=left;verticalAlign=middle;spacingLeft=4;spacingRight=4;overflow=hidden;points=[[0,0.5],[1,0.5]];portConstraint=eastwest;rotatable=0;whiteSpace=wrap;html=1;" vertex="1" parent="RM_54JRuScWnrG7y5Ghb-24">
          <mxGeometry y="60" width="90" height="30" as="geometry" />
        </mxCell>
        <mxCell id="RM_54JRuScWnrG7y5Ghb-27" value="3. Name of the third Place" style="text;strokeColor=none;fillColor=none;align=left;verticalAlign=middle;spacingLeft=4;spacingRight=4;overflow=hidden;points=[[0,0.5],[1,0.5]];portConstraint=eastwest;rotatable=0;whiteSpace=wrap;html=1;" vertex="1" parent="RM_54JRuScWnrG7y5Ghb-24">
          <mxGeometry y="90" width="90" height="30" as="geometry" />
        </mxCell>
        <mxCell id="RM_54JRuScWnrG7y5Ghb-28" value="Name of the player" style="swimlane;fontStyle=0;childLayout=stackLayout;horizontal=1;startSize=30;horizontalStack=0;resizeParent=1;resizeParentMax=0;resizeLast=0;collapsible=1;marginBottom=0;whiteSpace=wrap;html=1;fillColor=#d0cee2;strokeColor=#56517e;" vertex="1" parent="1">
          <mxGeometry x="350" y="740" width="80" height="120" as="geometry" />
        </mxCell>
        <mxCell id="RM_54JRuScWnrG7y5Ghb-29" value="WPM" style="text;strokeColor=none;fillColor=none;align=left;verticalAlign=middle;spacingLeft=4;spacingRight=4;overflow=hidden;points=[[0,0.5],[1,0.5]];portConstraint=eastwest;rotatable=0;whiteSpace=wrap;html=1;" vertex="1" parent="RM_54JRuScWnrG7y5Ghb-28">
          <mxGeometry y="30" width="80" height="30" as="geometry" />
        </mxCell>
        <mxCell id="RM_54JRuScWnrG7y5Ghb-30" value="Accuracy" style="text;strokeColor=none;fillColor=none;align=left;verticalAlign=middle;spacingLeft=4;spacingRight=4;overflow=hidden;points=[[0,0.5],[1,0.5]];portConstraint=eastwest;rotatable=0;whiteSpace=wrap;html=1;" vertex="1" parent="RM_54JRuScWnrG7y5Ghb-28">
          <mxGeometry y="60" width="80" height="30" as="geometry" />
        </mxCell>
        <mxCell id="RM_54JRuScWnrG7y5Ghb-31" value="Time" style="text;strokeColor=none;fillColor=none;align=left;verticalAlign=middle;spacingLeft=4;spacingRight=4;overflow=hidden;points=[[0,0.5],[1,0.5]];portConstraint=eastwest;rotatable=0;whiteSpace=wrap;html=1;" vertex="1" parent="RM_54JRuScWnrG7y5Ghb-28">
          <mxGeometry y="90" width="80" height="30" as="geometry" />
        </mxCell>
        <mxCell id="RM_54JRuScWnrG7y5Ghb-32" value="" style="rounded=0;whiteSpace=wrap;html=1;fillColor=#d5e8d4;gradientColor=#97d077;strokeColor=#82b366;" vertex="1" parent="1">
          <mxGeometry x="350" y="620" width="270" height="100" as="geometry" />
        </mxCell>
        <mxCell id="RM_54JRuScWnrG7y5Ghb-33" value="THIS will be the last state of the Game Window" style="text;html=1;align=center;verticalAlign=middle;whiteSpace=wrap;rounded=0;" vertex="1" parent="1">
          <mxGeometry x="450" y="655" width="60" height="30" as="geometry" />
        </mxCell>
        <mxCell id="RM_54JRuScWnrG7y5Ghb-35" value="" style="rounded=0;whiteSpace=wrap;html=1;fillColor=#d5e8d4;strokeColor=#82b366;gradientColor=#97d077;" vertex="1" parent="1">
          <mxGeometry x="720" y="130" width="90" height="40" as="geometry" />
        </mxCell>
        <mxCell id="RM_54JRuScWnrG7y5Ghb-36" value="TIME" style="text;html=1;align=center;verticalAlign=middle;whiteSpace=wrap;rounded=0;" vertex="1" parent="1">
          <mxGeometry x="735" y="135" width="60" height="30" as="geometry" />
        </mxCell>
        <mxCell id="RM_54JRuScWnrG7y5Ghb-37" value="WPM" style="text;html=1;align=center;verticalAlign=middle;whiteSpace=wrap;rounded=0;" vertex="1" parent="1">
          <mxGeometry x="720" y="185" width="60" height="30" as="geometry" />
        </mxCell>
        <mxCell id="RM_54JRuScWnrG7y5Ghb-38" value="WPM" style="text;html=1;align=center;verticalAlign=middle;whiteSpace=wrap;rounded=0;" vertex="1" parent="1">
          <mxGeometry x="720" y="245" width="60" height="30" as="geometry" />
        </mxCell>
        <mxCell id="RM_54JRuScWnrG7y5Ghb-39" value="WPM" style="text;html=1;align=center;verticalAlign=middle;whiteSpace=wrap;rounded=0;" vertex="1" parent="1">
          <mxGeometry x="720" y="312.5" width="60" height="35" as="geometry" />
        </mxCell>
      </root>
    </mxGraphModel>
  </diagram>
</mxfile>
